<svg width="40" height="40" viewBox="0 0 40 40" fill="none" xmlns="http://www.w3.org/2000/svg">
<path fill-rule="evenodd" clip-rule="evenodd" d="M11.7545 0.117202C13.8873 0.0213094 14.5673 0 20 0C25.4327 0 26.1127 0.0230852 28.2436 0.117202C30.3745 0.211319 31.8291 0.543392 33.1018 1.02463C34.4345 1.51652 35.6436 2.28544 36.6436 3.27988C37.6618 4.25479 38.4473 5.43392 38.9491 6.73735C39.4436 7.9804 39.7818 9.40103 39.88 11.4787C39.9782 13.5653 40 14.2294 40 19.5337C40 24.8398 39.9764 25.5039 39.88 27.5869C39.7836 29.6646 39.4436 31.0852 38.9491 32.3283C38.4473 33.6319 37.6605 34.8129 36.6436 35.7893C35.6436 36.7837 34.4345 37.5509 33.1018 38.041C31.8291 38.524 30.3745 38.8543 28.2473 38.9502C26.1127 39.0461 25.4327 39.0674 20 39.0674C14.5673 39.0674 13.8873 39.0443 11.7545 38.9502C9.62727 38.8561 8.17273 38.524 6.9 38.041C5.56531 37.5508 4.35604 36.7824 3.35636 35.7893C2.33887 34.8138 1.55148 33.6333 1.04909 32.33C0.556364 31.087 0.218182 29.6663 0.12 27.5887C0.0218181 25.5021 0 24.838 0 19.5337C0 14.2276 0.0236363 13.5635 0.12 11.4823C0.216364 9.40103 0.556364 7.9804 1.04909 6.73735C1.55222 5.43406 2.34022 4.25357 3.35818 3.27811C4.35644 2.28456 5.56449 1.51554 6.89818 1.02463C8.17091 0.543392 9.62545 0.213095 11.7527 0.117202H11.7545ZM28.0818 3.63327C25.9727 3.53915 25.34 3.51962 20 3.51962C14.66 3.51962 14.0273 3.53915 11.9182 3.63327C9.96727 3.72028 8.90909 4.03815 8.20364 4.30629C7.27091 4.66145 6.60364 5.08231 5.90364 5.76599C5.24008 6.39649 4.72942 7.16404 4.40909 8.01237C4.13454 8.70137 3.80909 9.73488 3.72 11.6403C3.62364 13.7002 3.60364 14.3182 3.60364 19.5337C3.60364 24.7492 3.62364 25.3672 3.72 27.4271C3.80909 29.3325 4.13454 30.366 4.40909 31.055C4.72909 31.9021 5.24 32.671 5.90364 33.3014C6.54909 33.9496 7.33636 34.4486 8.20364 34.7611C8.90909 35.0292 9.96727 35.3471 11.9182 35.4341C14.0273 35.5282 14.6582 35.5478 20 35.5478C25.3418 35.5478 25.9727 35.5282 28.0818 35.4341C30.0327 35.3471 31.0909 35.0292 31.7964 34.7611C32.7291 34.4059 33.3964 33.9851 34.0964 33.3014C34.76 32.671 35.2709 31.9021 35.5909 31.055C35.8655 30.366 36.1909 29.3325 36.28 27.4271C36.3764 25.3672 36.3964 24.7492 36.3964 19.5337C36.3964 14.3182 36.3764 13.7002 36.28 11.6403C36.1909 9.73488 35.8655 8.70137 35.5909 8.01237C35.2273 7.10138 34.7964 6.44967 34.0964 5.76599C33.4508 5.11795 32.6649 4.6192 31.7964 4.30629C31.0909 4.03815 30.0327 3.72028 28.0818 3.63327ZM17.4455 25.5554C18.8721 26.1354 20.4607 26.2137 21.9399 25.7769C23.4191 25.34 24.6971 24.4152 25.5557 23.1603C26.4142 21.9054 26.8001 20.3983 26.6474 18.8964C26.4946 17.3945 25.8127 15.9909 24.7182 14.9255C24.0204 14.2445 23.1767 13.723 22.2479 13.3986C21.319 13.0742 20.3281 12.955 19.3464 13.0496C18.3647 13.1442 17.4166 13.4501 16.5706 13.9455C15.7245 14.4409 15.0014 15.1133 14.4533 15.9144C13.9052 16.7154 13.5458 17.6252 13.4009 18.5782C13.2561 19.5313 13.3294 20.5038 13.6155 21.4258C13.9017 22.3479 14.3936 23.1965 15.0559 23.9105C15.7181 24.6246 16.5342 25.1864 17.4455 25.5554ZM12.7309 12.4341C13.6855 11.5017 14.8188 10.7622 16.066 10.2576C17.3132 9.75303 18.65 9.49333 20 9.49333C21.35 9.49333 22.6868 9.75303 23.934 10.2576C25.1812 10.7622 26.3145 11.5017 27.2691 12.4341C28.2237 13.3664 28.9809 14.4733 29.4975 15.6914C30.0141 16.9096 30.28 18.2152 30.28 19.5337C30.28 20.8522 30.0141 22.1578 29.4975 23.376C28.9809 24.5941 28.2237 25.701 27.2691 26.6333C25.3412 28.5162 22.7264 29.5741 20 29.5741C17.2736 29.5741 14.6588 28.5162 12.7309 26.6333C10.803 24.7504 9.71995 22.1966 9.71995 19.5337C9.71995 16.8708 10.803 14.317 12.7309 12.4341ZM32.56 10.9886C32.7966 10.7706 32.9859 10.5086 33.1169 10.2178C33.2479 9.92714 33.3178 9.61372 33.3226 9.29614C33.3273 8.97856 33.2668 8.66328 33.1445 8.36896C33.0223 8.07465 32.8408 7.80728 32.6108 7.58269C32.3809 7.35811 32.1071 7.18086 31.8058 7.06146C31.5045 6.94206 31.1816 6.88292 30.8565 6.88755C30.5313 6.89218 30.2104 6.96048 29.9128 7.08842C29.6151 7.21635 29.3468 7.40131 29.1236 7.63235C28.6897 8.08167 28.4521 8.6785 28.4613 9.29614C28.4705 9.91377 28.7258 10.5036 29.173 10.9404C29.6202 11.3771 30.2241 11.6265 30.8565 11.6355C31.4889 11.6445 32.0999 11.4125 32.56 10.9886Z" fill="white" fill-opacity="0.7"/>
</svg>
