<?xml version="1.0" encoding="UTF-8" standalone="no"?>
<svg
   version="1.0"
   width="683.63599pt"
   height="697.17633pt"
   viewBox="0 0 683.63599 697.17633"
   preserveAspectRatio="xMidYMid"
   id="svg24"
   sodipodi:docname="logo.svg"
   inkscape:version="1.2.2 (732a01da63, 2022-12-09)"
   xmlns:inkscape="http://www.inkscape.org/namespaces/inkscape"
   xmlns:sodipodi="http://sodipodi.sourceforge.net/DTD/sodipodi-0.dtd"
   xmlns="http://www.w3.org/2000/svg"
   xmlns:svg="http://www.w3.org/2000/svg">
  <sodipodi:namedview
     id="namedview8"
     pagecolor="#ffffff"
     bordercolor="#999999"
     borderopacity="1"
     inkscape:showpageshadow="0"
     inkscape:pageopacity="0"
     inkscape:pagecheckerboard="0"
     inkscape:deskcolor="#d1d1d1"
     inkscape:document-units="pt"
     showgrid="false"
     inkscape:zoom="0.61919585"
     inkscape:cx="900.36133"
     inkscape:cy="454.62191"
     inkscape:window-width="1920"
     inkscape:window-height="1001"
     inkscape:window-x="-9"
     inkscape:window-y="-9"
     inkscape:window-maximized="1"
     inkscape:current-layer="g22" />
  <defs
     id="defs28" />
  <metadata
     id="metadata16">
Created by potrace 1.16, written by Peter Selinger 2001-2019
</metadata>
  <g
     transform="matrix(0.1,0,0,-0.1,-95.210333,719.65069)"
     fill="#000000"
     stroke="none"
     id="g22"
     style="fill:#000000;fill-opacity:1">
    <path
       style="fill:#000000;fill-opacity:1;stroke-width:1.14377"
       d=""
       id="path916"
       transform="matrix(7.5,0,0,-7.5,952.10333,7196.5069)" />
    <path
       style="fill:#000000;fill-opacity:1;stroke-width:1.14377"
       d=""
       id="path924"
       transform="matrix(7.5,0,0,-7.5,952.10333,7196.5069)" />
    <path
       style="fill:#000000;fill-opacity:1;stroke-width:1.14377"
       d=""
       id="path1015"
       transform="matrix(7.5,0,0,-7.5,952.10333,7196.5069)" />
    <path
       style="fill:#ffffff;fill-opacity:1;stroke-width:8.57827"
       d="m 4174.5306,225.83526 c -204.5657,16.14375 -411.1114,44.0586 -411.1114,55.5621 0,4.46872 268.9835,282.46395 597.7411,617.767 950.6651,969.59284 1081.8255,1107.28604 1102.9811,1157.91844 14.584,34.9045 15.0908,134.095 0.8841,173.0274 -22.1567,60.7186 -196.9017,238.4925 -260.5836,265.1007 -54.8725,22.9271 -147.7349,-20.3832 -147.7349,-68.9027 0,-26.2087 22.4437,-54.4418 131.9271,-165.958 l 86.208,-87.8086 -116.1626,-117.7471 C 5094.79,1990.0336 4706.7567,1595.528 4296.3833,1178.1153 3886.0098,760.70263 3530.6743,402.79371 3506.7488,382.76218 l -43.5009,-36.42097 -39.904,10.0479 c -105.7421,26.62612 -399.6541,143.13615 -545.8662,216.38737 -199.9719,100.18455 -422.0183,243.12983 -604.3371,389.04998 -134.0258,107.26844 -344.0427,309.54654 -459.2378,442.31564 -408.1033,470.3629 -679.4437,1039.8222 -794.6596,1667.744 -39.658,216.1339 -51.22772,354.0964 -51.71482,616.667 -0.4951,266.8456 7.91232,375.2606 46.89942,604.7772 163.4988,962.5159 710.9163,1803.297 1520.7331,2335.7012 443.8412,291.7979 914.928,463.5274 1463.7909,533.6087 168.777,21.5502 574.4975,21.7179 749.4217,0.3097 675.4619,-82.6668 1279.9973,-342.7676 1790.0474,-770.1663 135.4358,-113.4891 365.1705,-348.0115 471.8266,-481.6598 405.5948,-508.241 653.6687,-1077.4 743.5043,-1705.8299 51.2079,-358.2173 45.081,-767.6285 -16.7053,-1116.2782 C 7578.9123,2196.6923 7097.2792,1413.8511 6378.2751,880.48356 6154.0452,714.14661 5808.7857,525.82258 5559.5056,433.88046 5171.5183,290.77888 4753.9009,217.08463 4354.821,221.29738 c -77.9618,0.82298 -159.0925,2.865 -180.2904,4.53788 z M 1992.7982,1673.3071 c -163.2951,205.7707 -285.928,399.271 -399.2755,630.0097 -237.8885,484.2635 -345.5017,873.6498 -374.7686,1356.0586 -34.5913,570.1716 107.914,1183.0616 393.8136,1693.7222 479.9791,857.3165 1303.9827,1419.0087 2272.1541,1548.8417 112.5503,15.0932 183.4895,18.8443 362.6097,19.174 225.6761,0.4155 321.8767,-6.8396 509.6068,-38.4325 493.1668,-82.9945 1066.1975,-336.7549 1503.1259,-665.6429 117.4094,-88.3774 116.6915,-87.9896 68.5185,-37.0069 -90.4609,95.7371 -321.9917,270.4602 -500.5264,377.7188 -386.127,231.9741 -854.4887,385.4421 -1280.0586,419.4366 -141.9997,11.3429 -482.9784,11.3673 -597.3862,0.043 -991.787,-98.1712 -1886.747,-689.1498 -2392.9523,-1580.1639 -192.6273,-339.0594 -325.1859,-738.2225 -385.6322,-1161.2232 -21.3595,-149.4728 -26.3437,-566.5452 -8.7593,-732.974 74.9187,-709.0756 346.3455,-1321.0441 817.0868,-1842.2326 35.1989,-38.9709 65.846,-69.0082 68.1047,-66.7495 2.2587,2.2588 -22.7887,37.9982 -55.661,79.4211 z m 283.6408,141.6916 c -3.4526,5.8884 -35.8215,49.2477 -71.931,96.3543 -285.5586,372.5245 -513.1269,853.6738 -611.6839,1293.2877 -50.6897,226.1017 -59.9417,321.2835 -59.9417,616.6671 0,296.3127 9.0988,389.532 60.6084,620.9494 121.6237,546.4187 426.3206,1074.6234 833.8165,1445.455 291.7579,265.5071 622.33,461.2015 980.6719,580.5451 454.6654,151.4234 911.1498,179.1051 1386.3476,84.0694 427.8045,-85.5573 906.2155,-307.6156 1291.7224,-599.563 131.3329,-99.4596 119.063,-74.025 -22.9759,47.6272 -403.2209,345.347 -881.8519,564.451 -1417.4776,648.8819 -80.9235,12.756 -150.4472,15.5255 -389.6993,15.5237 -290.3786,0 -356.619,-4.5802 -509.6068,-35.22 -372.3258,-74.5679 -716.3069,-216.5816 -1021.4529,-421.7099 -660.047,-443.7036 -1105.1313,-1141.1652 -1230.5686,-1928.3409 -33.4204,-209.7283 -43.9943,-502.4073 -25.8374,-715.1625 47.5875,-557.6106 267.0427,-1106.2092 619.3952,-1548.3765 72.5302,-91.0183 179.423,-211.694 187.5153,-211.694 4.0563,0 4.5503,4.8177 1.0978,10.706 z m 222.4334,222.6854 c -3.5911,5.8883 -38.1055,53.2268 -76.6986,105.1966 -107.6142,144.9145 -168.1484,242.9319 -251.0809,406.5513 -238.377,470.3006 -334.6996,835.0992 -334.6996,1267.5934 0,1025.3969 617.6114,1941.0175 1559.9017,2312.584 441.8289,174.2231 974.8374,207.2585 1441.377,89.3353 331.2141,-83.7183 754.8231,-288.1971 1039.8395,-501.9375 43.9711,-32.9751 81.7623,-58.1397 83.9804,-55.9217 5.6139,5.6139 -132.58,128.2901 -215.6566,191.4406 -329.4435,250.4256 -683.3145,402.8012 -1104.522,475.6036 -100.6464,17.3958 -138.495,19.2018 -393.9818,18.7992 -252.5617,-0.3982 -293.5762,-2.4407 -385.4169,-19.1951 -359.9743,-65.6702 -679.9186,-192.5785 -963.5422,-382.1962 -151.1576,-101.057 -235.0655,-170.4648 -372.637,-308.2416 -437.1194,-437.7717 -684.0856,-956.7057 -741.6493,-1558.38 -13.3609,-139.6515 -5.3528,-536.9462 13.22,-655.8723 50.2188,-321.5631 175.6047,-660.3368 352.2344,-951.6838 79.9828,-131.9302 131.1811,-198.909 320.5909,-419.4043 21.3105,-24.808 41.1857,-34.6771 28.741,-14.2715 z m 231.4499,214.1205 c -3.4812,5.8882 -30.4497,41.7883 -59.93,79.7776 -183.7015,236.7246 -380.9254,647.3076 -456.4015,950.142 -127.0002,509.5653 -70.5356,1036.0299 161.6735,1507.4082 282.0301,572.514 795.7509,983.9617 1409.6297,1128.9966 276.3189,65.2832 573.9707,72.9378 843.172,21.6835 332.6472,-63.3338 707.8004,-227.1382 1014.9312,-443.1525 113.4234,-79.7741 115.625,-81.1267 115.625,-71.0325 0,21.784 -263.7951,227.3371 -389.6992,303.6597 -239.4614,145.1603 -530.9517,250.366 -800.8107,289.031 -112.59,16.1318 -357.3464,24.4255 -475.0071,16.0958 -427.6207,-30.273 -845.8749,-197.5199 -1190.8503,-476.1841 -103.0242,-83.2207 -270.7885,-253.5945 -348.2864,-353.7037 -267.037,-344.9491 -426.4389,-749.1876 -462.0403,-1171.7206 -12.0907,-143.4977 -4.8478,-442.5911 13.6254,-562.6554 65.8804,-428.1794 277.8387,-865.5139 571.8033,-1179.8039 42.6742,-45.6249 67.5257,-63.8463 52.5654,-38.5417 z m 248.1393,188.426 c -3.6135,5.8883 -35.0292,49.2477 -69.8127,96.3542 -182.7447,247.4865 -327.0046,558.3406 -405.4222,873.6117 -21.1216,84.9171 -26.7754,129.9903 -32.5344,259.3703 -8.9089,200.1403 1.5421,426.1047 24.5866,531.6009 44.4141,203.3236 160.8318,480.097 270.729,643.636 294.342,438.0126 719.9965,710.8382 1238.3955,793.7565 139.5548,22.3219 400.715,19.9086 542.6968,-5.015 204.1469,-35.8361 382.302,-99.6545 639.1379,-228.9508 133.9613,-67.4388 219.8852,-120.5046 326.3595,-201.5565 36.6099,-27.8688 66.5634,-47.0583 66.5634,-42.6432 0,4.4148 -24.0885,30.3452 -53.5301,57.6228 -478.822,443.6288 -1119.1237,605.0539 -1749.3645,441.0285 -231.5764,-60.2697 -491.7324,-193.6656 -683.8369,-350.64 -355.0512,-290.1228 -609.2062,-734.0276 -677.4399,-1183.2104 -32.4507,-213.6233 -25.7932,-487.1134 17.0436,-700.1527 51.8645,-257.9358 169.1011,-523.9014 323.0599,-732.9012 70.0292,-95.0648 211.4419,-262.6171 221.6468,-262.6171 4.5603,0 5.3352,4.8177 1.7217,10.706 z m 1644.3026,138.925 c 137.5649,28.8907 288.3787,93.4299 400.2476,171.282 70.636,49.1572 185.6908,163.2937 248.1082,246.1279 99.9118,132.5929 152.7722,241.6596 194.2443,400.7837 29.6345,113.7046 36.9665,326.859 15.6319,454.4487 -39.4585,235.9794 -144.0226,439.3081 -312.625,607.9105 -213.193,213.193 -465.1478,316.5768 -771.5238,316.5768 -179.4556,0 -295.7483,-27.9915 -469.5447,-113.0187 -111.6189,-54.6076 -199.5055,-120.5932 -298.4027,-224.0414 -156.3822,-163.5785 -246.7962,-337.6306 -290.8665,-559.9343 -20.6184,-104.0053 -20.7792,-322.0676 -0.3128,-423.7848 69.9947,-347.8642 286.7618,-631.4161 601.2769,-786.5272 103.0153,-50.8045 219.9335,-87.8148 323.7788,-102.4914 77.1119,-10.8984 282.1265,-3.6838 359.9873,12.6682 z m -1509.9617,210.6711 c -111.4416,166.7188 -234.5187,429.7337 -286.2921,611.8049 -80.2536,282.2264 -72.3191,623.3252 21.1184,907.8709 13.9216,42.3958 52.1893,131.0418 85.039,196.9909 205.9272,413.4195 586.9152,711.1198 1026.447,802.0561 108.1821,22.3823 387.8636,31.3532 500.9724,16.0689 227.5272,-30.7455 551.7428,-161.8141 783.4966,-316.7394 58.0311,-38.7932 107.2615,-68.7827 109.4008,-66.6434 5.0908,5.0908 -103.674,101.861 -183.7602,163.4953 -161.601,124.3682 -401.3046,230.3166 -626.4066,276.8702 -106.9075,22.1098 -470.1456,22.2046 -573.8429,0.15 -96.4872,-20.5212 -283.6903,-83.1977 -370.9733,-124.2037 -259.7737,-122.0429 -512.0103,-353.2967 -669.7296,-614.0168 -237.7577,-393.0291 -290.5439,-893.5299 -141.4683,-1341.356 50.2502,-150.9528 134.7935,-310.3968 239.1447,-451.0143 54.6896,-73.6965 146.6698,-175.9392 152.7814,-169.8276 2.1739,2.1738 -27.4934,50.9961 -65.9273,108.4941 z"
       id="path1025" />
    <path
       style="fill:#ffffff;fill-opacity:1;stroke-width:8.57827"
       d="m 4295.4979,3213.8705 c -158.9859,42.7611 -289.0652,174.4932 -330.8988,335.1033 -16.4616,63.1999 -16.305,173.7357 0.3367,237.6267 35.1246,134.8526 122.4408,242.2324 247.2451,304.0575 69.8278,34.591 81.6802,37.692 158.1342,41.3736 101.5947,4.8921 162.02,-6.8598 242.6321,-47.1884 150.7323,-75.4082 254.8032,-246.9851 255.2073,-420.7483 0.471,-202.6891 -151.2017,-399.596 -347.1045,-450.6222 -62.271,-16.2195 -164.4387,-16.0393 -225.5519,0.3975 z m 232.5459,185.7773 c 63.6723,29.1501 120.012,87.8463 143.9547,149.9755 23.2458,60.321 25.6464,167.0736 5.0042,222.5308 -74.9021,201.2317 -326.2443,256.0367 -474.2267,103.4048 -56.7399,-58.5225 -74.7498,-107.4919 -75.0767,-204.1355 -0.2422,-71.549 2.6224,-87.5658 23.7417,-132.7546 52.888,-113.164 145.2747,-169.7945 267.6554,-164.0652 42.2014,1.9756 75.0553,9.5279 108.9474,25.0442 z"
       id="path5464" />
  </g>
</svg>
