<svg width="40" height="40" viewBox="0 0 40 40" fill="none" xmlns="http://www.w3.org/2000/svg">
<path d="M28.2824 14.6615C30.7518 16.433 33.7769 17.4753 37.0441 17.4753V11.1658C36.4258 11.1659 35.809 11.1012 35.2041 10.9726V15.9391C31.9371 15.9391 28.9124 14.8968 26.4424 13.1254V26.0014C26.4424 32.4426 21.2394 37.6639 14.8214 37.6639C12.4267 37.6639 10.201 36.9373 8.35205 35.6913C10.4623 37.8567 13.4052 39.2 16.661 39.2C23.0794 39.2 28.2827 33.9787 28.2827 27.5372V14.6615H28.2824ZM30.5523 8.29599C29.2903 6.91236 28.4617 5.12428 28.2824 3.14748V2.33594H26.5388C26.9777 4.84845 28.4747 6.99499 30.5523 8.29599ZM12.4114 30.7485C11.7063 29.8207 11.3253 28.6858 11.327 27.5188C11.327 24.5728 13.7068 22.1842 16.6429 22.1842C17.1901 22.1841 17.734 22.2681 18.2555 22.4342V15.9836C17.6461 15.8998 17.031 15.8642 16.4163 15.8773V20.8981C15.8944 20.732 15.3502 20.6477 14.8029 20.6482C11.8668 20.6482 9.48711 23.0366 9.48711 25.9829C9.48711 28.0662 10.6766 29.8699 12.4114 30.7485Z" fill="white" fill-opacity="0.7"/>
<path d="M26.4425 13.1253C28.9126 14.8967 31.9372 15.939 35.2042 15.939V10.9724C33.3806 10.5826 31.7662 9.62625 30.5524 8.29599C28.4747 6.99486 26.9778 4.84832 26.5389 2.33594H21.9587V27.537C21.9484 30.4749 19.5726 32.8538 16.6428 32.8538C14.9163 32.8538 13.3825 32.0279 12.4111 30.7485C10.6765 29.8699 9.48696 28.0661 9.48696 25.9831C9.48696 23.037 11.8667 20.6484 14.8028 20.6484C15.3653 20.6484 15.9075 20.7363 16.4161 20.8982V15.8774C10.1109 16.0081 5.04004 21.1784 5.04004 27.5371C5.04004 30.7113 6.30281 33.5889 8.3523 35.6914C10.2012 36.9373 12.427 37.664 14.8217 37.664C21.2397 37.664 26.4427 32.4425 26.4427 26.0014V13.1253H26.4425Z" fill="white" fill-opacity="0.7"/>
<path d="M35.2043 10.9725V9.62956C33.5598 9.63207 31.9476 9.16989 30.5524 8.29588C31.7875 9.65289 33.4139 10.5886 35.2043 10.9725ZM26.5389 2.33596C26.497 2.09585 26.4649 1.85415 26.4426 1.61153V0.799988H20.1186V26.0013C20.1085 28.9388 17.7329 31.3177 14.8028 31.3177C13.9426 31.3177 13.1304 31.1128 12.4112 30.7486C13.3825 32.0279 14.9163 32.8537 16.6428 32.8537C19.5724 32.8537 21.9485 30.4751 21.9588 27.5371V2.33596H26.5389ZM16.4164 15.8774V14.4478C15.888 14.3753 15.3552 14.339 14.8218 14.3392C8.40326 14.3391 3.2002 19.5606 3.2002 26.0013C3.2002 30.0392 5.24509 33.5979 8.35247 35.6912C6.30298 33.5888 5.04021 30.7111 5.04021 27.537C5.04021 21.1784 10.111 16.0082 16.4164 15.8774Z" fill="white" fill-opacity="0.7"/>
</svg>
