<svg width="41" height="40" viewBox="0 0 41 40" fill="none" xmlns="http://www.w3.org/2000/svg">
<g clip-path="url(#clip0_91_54)">
<path d="M0 19.2C0 10.149 0 5.62355 2.87426 2.81177C5.74852 0 10.3745 0 19.6267 0H21.2622C30.5144 0 35.1403 0 38.0147 2.81177C40.8889 5.62355 40.8889 10.149 40.8889 19.2V20.8C40.8889 29.851 40.8889 34.3764 38.0147 37.1882C35.1403 40 30.5144 40 21.2622 40H19.6267C10.3745 40 5.74852 40 2.87426 37.1882C0 34.3764 0 29.851 0 20.8V19.2Z" fill="white" fill-opacity="0.7"/>
<path d="M21.6859 28.8C12.1862 28.8 6.76776 22.4937 6.54199 12H11.3005C11.4568 19.7021 14.9649 22.9646 17.7436 23.6372V12H22.2244V18.6426C24.9684 18.3568 27.8509 15.3297 28.8235 12H33.3042C32.5575 16.1033 29.4314 19.1303 27.2085 20.3748C29.4314 21.3838 32.9918 24.024 34.3464 28.8H29.4141C28.3547 25.6048 25.7152 23.1327 22.2244 22.7964V28.8H21.6859Z" fill="black"/>
</g>
<defs>
<clipPath id="clip0_91_54">
<rect width="40.8889" height="40" fill="white"/>
</clipPath>
</defs>
</svg>
